<?xml version="1.0" standalone="no"?>
<!DOCTYPE svg PUBLIC "-//W3C//DTD SVG 20010904//EN"
 "http://www.w3.org/TR/2001/REC-SVG-20010904/DTD/svg10.dtd">
<svg version="1.0" xmlns="http://www.w3.org/2000/svg"
 width="190.000000pt" height="191.000000pt" viewBox="0 0 190.000000 191.000000"
 preserveAspectRatio="xMidYMid meet">
<metadata>
Created by potrace 1.13, written by Peter Selinger 2001-2015
</metadata>
<g transform="translate(0.000000,191.000000) scale(0.100000,-0.100000)"
fill="#000000" stroke="none">
<path d="M1794 1482 c-5 -5 -27 -14 -49 -20 -51 -15 -129 -66 -153 -100 -11
-15 -77 -152 -147 -305 -115 -250 -128 -286 -133 -347 -8 -113 25 -175 112
-216 45 -21 106 -32 106 -20 0 3 -9 21 -21 40 -12 21 -22 61 -26 103 l-6 69
167 398 c92 219 165 400 163 402 -2 2 -8 0 -13 -4z"/>
<path d="M549 1428 c-15 -36 -24 -78 -27 -130 -5 -93 10 -143 111 -368 71
-159 92 -194 105 -174 150 236 208 324 212 324 4 0 62 -88 212 -324 13 -20 34
15 103 169 94 209 115 275 115 356 0 62 -22 145 -48 187 -17 26 -42 -3 -112
-136 -40 -75 -75 -141 -79 -145 -4 -4 -47 58 -95 138 -49 80 -92 145 -96 145
-4 0 -47 -65 -96 -145 -48 -80 -91 -142 -95 -138 -4 4 -37 66 -74 136 -65 123
-87 157 -104 157 -5 0 -19 -24 -32 -52z"/>
<path d="M100 1460 c0 -6 72 -183 161 -393 l161 -382 -6 -68 c-3 -43 -13 -82
-25 -103 -12 -19 -21 -37 -21 -40 0 -12 61 -1 106 20 87 41 120 103 112 216
-5 60 -19 98 -134 351 -141 309 -162 340 -257 385 -55 25 -97 31 -97 14z"/>
<path d="M821 665 c-67 -107 -121 -197 -121 -200 0 -3 46 -5 103 -5 l103 0 17
30 c23 38 31 38 54 0 l17 -30 103 0 c57 0 103 2 103 5 0 11 -243 395 -250 395
-4 0 -63 -88 -129 -195z"/>
</g>
</svg>
